# xmcd CD database file
#
# Track frame offsets:
#	150
#	12754
#	24180
#	36276
#	47994
#	60398
#	72690
#	86113
#	97998
#	110083
#	122632
#	135111
#	146612
#	159984
#	172173
#	184659
#	196583
#	209463
#	219250
#	238041
#	252269
#	262841
#	277912
#	289242
#	300439
#	308878
#
# Disc length: 4312 seconds
#
# Revision: 5
# Processed by: cddbd v1.5.2PL0 Copyright (c) Steve Scherf et al.
# Submitted via: CDex 1.70beta2
#
DISCID=6b10d61a
DTITLE=Bob Wills - Take Me Back To Tulsa  -  Disc 3
DYEAR=2002
DGENRE=Country
TTITLE0=We Might As Well Forget It
TTITLE1=Home In San Antone
TTITLE2=Liberty
TTITLE3=Miss Molly
TTITLE4=You're From Texas
TTITLE5=Goodbye Liza Jane
TTITLE6=My Confession
TTITLE7=Texas Playboy Rag
TTITLE8=Roly Poly
TTITLE9=Stay A Little Longer
TTITLE10=Just A Plain Old Country Boy
TTITLE11=New Spanish Two Step
TTITLE12=I'm Feelin' Bad
TTITLE13=Cotton Eyed Joe
TTITLE14=Brain Cloudy Blues
TTITLE15=Bob Wills Boogie
TTITLE16=Fat Boy Rag
TTITLE17=A Good Man Is Hard To Find
TTITLE18=A Little Bit Of Boogie
TTITLE19=Along The Navajo Trail
TTITLE20=Baby Won't You Please Come Home
TTITLE21=Betcha My Heart
TTITLE22=China Town
TTITLE23=Dinah
TTITLE24=Frankie Jean
TTITLE25=Hawaiian War Chant
EXTD=YEAR: 2002
EXTT0=
EXTT1=
EXTT2=
EXTT3=
EXTT4=
EXTT5=
EXTT6=
EXTT7=
EXTT8=
EXTT9=
EXTT10=
EXTT11=
EXTT12=
EXTT13=
EXTT14=
EXTT15=
EXTT16=
EXTT17=
EXTT18=
EXTT19=
EXTT20=
EXTT21=
EXTT22=
EXTT23=
EXTT24=
EXTT25=
PLAYORDER=
